<?xml version="1.0" standalone="no"?>
<!DOCTYPE svg PUBLIC "-//W3C//DTD SVG 20010904//EN"
 "http://www.w3.org/TR/2001/REC-SVG-20010904/DTD/svg10.dtd">
<svg version="1.0" xmlns="http://www.w3.org/2000/svg"
 width="270.000000pt" height="270.000000pt" viewBox="0 0 270.000000 270.000000"
 preserveAspectRatio="xMidYMid meet">
<metadata>
Created by potrace 1.11, written by Peter Selinger 2001-2013
</metadata>
<g transform="translate(0.000000,270.000000) scale(0.100000,-0.100000)"
fill="#000000" stroke="none">
<path d="M625 2680 c-3 -4 -2 -10 2 -12 14 -6 90 -131 128 -208 50 -104 73
-179 81 -263 l6 -72 -303 -74 c-167 -41 -308 -76 -314 -77 -10 -3 -47 -12 -54
-13 -7 -1 37 -41 44 -41 4 0 13 -7 22 -15 8 -9 43 -34 77 -57 33 -23 63 -45
64 -50 2 -4 7 -8 12 -8 5 0 35 -17 67 -38 64 -43 288 -172 297 -172 3 0 6 5 6
11 0 5 -4 8 -9 5 -5 -4 -11 -3 -13 1 -1 5 -43 37 -93 73 -149 107 -289 220
-273 220 4 0 64 -36 134 -81 70 -45 135 -84 143 -87 9 -3 18 -8 21 -12 12 -15
347 -192 390 -205 3 -1 14 -5 25 -9 11 -5 27 -10 35 -13 13 -4 13 -6 -1 -13
-16 -10 -154 -49 -192 -55 -12 -2 -40 -7 -62 -10 -22 -4 -57 -8 -77 -8 -38 -1
-57 -27 -20 -27 9 0 44 -9 77 -19 l60 -18 -80 -18 c-44 -10 -85 -20 -92 -24
-8 -4 19 -53 81 -145 86 -130 105 -166 84 -166 -4 0 -8 4 -8 8 0 8 -12 15 -62
40 -7 3 6 -35 76 -223 27 -73 32 -90 41 -140 3 -16 2 -23 -1 -15 -4 8 -37 54
-73 101 -59 77 -112 139 -233 271 -45 49 -82 122 -80 157 3 50 17 127 31 163
5 13 10 28 11 33 1 6 6 20 11 33 5 13 11 35 14 50 5 24 4 23 -13 -8 -11 -19
-40 -73 -66 -119 -25 -47 -46 -87 -46 -90 0 -3 -7 -19 -15 -34 -21 -41 -39
-139 -32 -169 4 -15 53 -73 110 -130 164 -163 243 -261 245 -300 4 -91 3 -217
-2 -248 -13 -76 -28 -130 -37 -130 -5 0 -8 -3 -7 -7 1 -5 -3 -18 -10 -30 -11
-19 -10 -21 11 -15 31 8 127 66 160 97 15 14 27 36 27 49 0 26 -25 119 -42
156 -20 43 -20 46 1 20 44 -53 122 -201 137 -260 17 -69 20 -90 18 -128 -2
-23 -9 -56 -18 -72 -17 -34 -11 -37 24 -13 30 20 134 123 124 123 -3 0 5 15
19 33 13 18 32 55 41 82 9 26 20 53 23 59 10 15 15 72 16 171 l0 90 121 -40
c67 -22 124 -43 127 -48 3 -5 9 -8 13 -7 4 1 27 -4 52 -11 37 -11 68 -38 190
-161 79 -82 146 -148 148 -148 5 0 0 101 -5 115 -2 6 -2 12 1 15 6 5 315 -236
354 -276 18 -18 18 -17 12 41 -10 94 -48 297 -72 380 -3 11 -7 27 -9 35 -1 8
-6 24 -10 35 -35 96 -59 153 -70 171 -13 21 -15 60 -3 79 5 8 13 40 24 90 1 6
5 28 8 50 4 22 10 64 15 93 14 91 5 268 -18 357 -18 69 -111 280 -130 295 -12
10 -51 70 -51 79 0 5 -3 11 -8 13 -4 2 -34 39 -67 83 -33 44 -63 85 -67 90
-26 32 -81 109 -123 170 -43 64 -50 62 -22 -5 6 -14 10 -28 9 -32 -1 -5 2 -8
7 -8 5 0 11 -10 15 -22 3 -13 24 -47 46 -76 l40 -53 -30 16 c-16 8 -41 20 -56
25 -25 10 -25 9 -24 -32 1 -24 1 -46 1 -49 -1 -7 -38 1 -98 19 -32 10 -33 10
-45 -31 -15 -53 -15 -55 -17 -67 -2 -18 -21 -10 -21 8 0 10 -3 22 -7 26 -4 3
-8 14 -10 24 -1 9 -6 37 -11 62 -22 121 14 253 105 390 l17 25 -23 -20 c-45
-38 -117 -146 -113 -167 1 -5 -2 -8 -6 -8 -5 0 -17 -28 -28 -62 -25 -84 -25
-230 1 -313 21 -71 104 -243 138 -289 4 -6 34 -49 68 -96 33 -47 65 -92 72
-100 57 -68 202 -269 232 -319 9 -16 4 -13 -60 29 -56 37 -228 108 -280 115
-5 1 -12 3 -15 4 -3 1 -16 4 -30 6 -14 2 -38 6 -55 9 -52 11 -191 24 -255 26
-25 0 -26 1 -23 68 3 85 10 155 24 240 6 37 12 78 14 92 4 26 11 66 21 123 13
69 11 290 -3 366 -13 70 -46 195 -60 231 -4 8 -7 17 -8 20 -1 3 -7 18 -13 33
-7 16 -12 30 -12 32 0 2 -23 52 -52 112 -28 59 -51 111 -50 115 1 3 -4 8 -11
11 -10 4 -13 -13 -14 -67 -1 -90 -9 -158 -28 -221 -16 -52 -43 -107 -45 -90
-1 6 -3 18 -6 28 -2 9 -5 23 -7 30 -1 6 -6 18 -10 25 -5 6 -6 12 -2 12 8 0
-54 120 -83 160 -63 86 -264 261 -277 240z m830 -1989 c66 -51 125 -100 131
-107 6 -8 14 -14 18 -14 9 0 87 -62 83 -66 -2 -2 -95 34 -207 79 -196 80 -204
84 -207 112 -2 17 -8 54 -13 84 -6 30 -10 59 -10 64 0 5 19 -6 43 -24 23 -19
96 -76 162 -128z"/>
</g>
</svg>
